<svg width="24" height="28" viewBox="0 0 24 28" fill="none" xmlns="http://www.w3.org/2000/svg">
<path d="M23.6448 4.72296L20.0484 0.420617C19.9372 0.28705 19.8049 0.181124 19.6593 0.108937C19.5137 0.0367502 19.3576 -0.000271963 19.2 1.50399e-06H4.8C4.64239 -0.000271963 4.48629 0.0367502 4.34068 0.108937C4.19508 0.181124 4.06285 0.28705 3.9516 0.420617L0.355201 4.72296C0.242504 4.85593 0.153058 5.0144 0.0920756 5.18915C0.0310929 5.36389 -0.000206676 5.5514 1.02699e-06 5.74076V24.4043C1.02699e-06 25.1658 0.252857 25.8961 0.702945 26.4345C1.15303 26.9729 1.76348 27.2754 2.4 27.2754H21.6C22.2365 27.2754 22.847 26.9729 23.2971 26.4345C23.7471 25.8961 24 25.1658 24 24.4043V5.74076C24.0002 5.5514 23.9689 5.36389 23.9079 5.18915C23.8469 5.0144 23.7575 4.85593 23.6448 4.72296ZM5.2968 2.8711H18.7032L19.9032 4.30665H4.0968L5.2968 2.8711ZM18 15.791V17.2266H6V11.4844H8.4V14.3555H15.6V11.4844H18V15.791Z" fill="black"/>
</svg>
