<svg width="24" height="24" viewBox="0 0 24 24" fill="none" xmlns="http://www.w3.org/2000/svg">
<path d="M2.66667 24H21.3333C22.804 24 24 22.9236 24 21.6V4.8C24 3.4764 22.804 2.4 21.3333 2.4H18.6667V0H16V2.4H8V0H5.33333V2.4H2.66667C1.196 2.4 0 3.4764 0 4.8V21.6C0 22.9236 1.196 24 2.66667 24ZM21.3333 7.2L21.3347 21.6H2.66667V7.2H21.3333Z" fill="black"/>
<path d="M6 10H8.6V12.9577H6V10ZM6 15.9155H8.6V18.8732H6V15.9155ZM11.2 10H13.8V12.9577H11.2V10ZM11.2 15.9155H13.8V18.8732H11.2V15.9155ZM16.4 10H19V12.9577H16.4V10ZM16.4 15.9155H19V18.8732H16.4V15.9155Z" fill="black"/>
</svg>
