<svg width="20" height="24" viewBox="0 0 20 24" fill="none" xmlns="http://www.w3.org/2000/svg">
<path d="M17.5 24C18.163 24 18.7989 23.7471 19.2678 23.2971C19.7366 22.847 20 22.2365 20 21.6V7.2L12.5 0H2.5C1.83696 0 1.20107 0.252856 0.732233 0.702944C0.263392 1.15303 0 1.76348 0 2.4V21.6C0 22.2365 0.263392 22.847 0.732233 23.2971C1.20107 23.7471 1.83696 24 2.5 24H17.5ZM11.25 2.4L17.5 8.4H11.25V2.4ZM3.75 7.2H7.5V9.6H3.75V7.2ZM3.75 12H16.25V14.4H3.75V12ZM3.75 16.8H16.25V19.2H3.75V16.8Z" fill="black"/>
</svg>
