<svg width="40" height="40" viewBox="0 0 40 40" fill="none" xmlns="http://www.w3.org/2000/svg">
<path d="M0 10C0 4.47715 4.47715 0 10 0H40V40H10C4.47715 40 0 35.5228 0 30V10Z" fill="#3471CD"/>
<path d="M15 25.5349L19.413 25.5199L29.045 15.9799C29.423 15.6019 29.631 15.0999 29.631 14.5659C29.631 14.0319 29.423 13.5299 29.045 13.1519L27.459 11.5659C26.703 10.8099 25.384 10.8139 24.634 11.5629L15 21.1049V25.5349ZM26.045 12.9799L27.634 14.5629L26.037 16.1449L24.451 14.5599L26.045 12.9799ZM17 21.9389L23.03 15.9659L24.616 17.5519L18.587 23.5229L17 23.5279V21.9389Z" fill="white"/>
<path d="M13 29.522H27C28.103 29.522 29 28.625 29 27.522V18.854L27 20.854V27.522H16.158C16.132 27.522 16.105 27.532 16.079 27.532C16.046 27.532 16.013 27.523 15.979 27.522H13V13.522H19.847L21.847 11.522H13C11.897 11.522 11 12.419 11 13.522V27.522C11 28.625 11.897 29.522 13 29.522Z" fill="white"/>
</svg>
