<svg width="19" height="24" viewBox="0 0 19 24" fill="none" xmlns="http://www.w3.org/2000/svg">
<path d="M15.9914 24C16.5973 24 17.1783 23.7471 17.6068 23.2971C18.0352 22.847 18.2759 22.2365 18.2759 21.6V15.6L12.5647 20.4V16.8H4.56897V14.4H12.5647V10.8L18.2759 15.6V7.2L11.4224 0H2.28448C1.6786 0 1.09753 0.252856 0.669109 0.702944C0.240686 1.15303 0 1.76348 0 2.4V21.6C0 22.2365 0.240686 22.847 0.669109 23.2971C1.09753 23.7471 1.6786 24 2.28448 24H15.9914ZM10.2802 2.4L15.9914 8.4H10.2802V2.4Z" fill="black"/>
</svg>
