<svg width="24" height="24" viewBox="0 0 24 24" fill="none" xmlns="http://www.w3.org/2000/svg">
<path d="M6.0896 2.9025C6.21092 2.77253 6.30606 2.61676 6.369 2.44502C6.43194 2.27327 6.46133 2.08926 6.45531 1.90461C6.44929 1.71995 6.408 1.53865 6.33403 1.37213C6.26006 1.20561 6.15502 1.05748 6.02554 0.937096C5.37393 0.335089 4.54608 0.00300841 3.68943 0L3.50072 0.00562235H3.47301C1.51952 0.134317 -0.00403171 1.97103 8.01483e-06 4.1857C8.01483e-06 5.37269 0.46169 6.00117 0.82642 6.50407C0.928766 6.64467 1.05707 6.76062 1.20314 6.84453C1.34921 6.92843 1.50983 6.97844 1.67476 6.99136C1.68977 6.99136 1.71516 6.99449 1.79018 6.99449C1.93853 6.99425 2.08531 6.96153 2.22168 6.89829C2.35805 6.83506 2.48119 6.74261 2.5837 6.62652L6.0896 2.9025ZM20.5287 0.00687208L20.34 0.000624864H20.31C19.4526 0.00304158 18.6238 0.335159 17.9716 0.937721C17.8423 1.0581 17.7374 1.20615 17.6635 1.37256C17.5897 1.53896 17.5484 1.72012 17.5424 1.90462C17.5364 2.08912 17.5657 2.27297 17.6286 2.4446C17.6914 2.61623 17.7864 2.77192 17.9075 2.90188L21.4146 6.6284C21.5173 6.7449 21.6408 6.83764 21.7776 6.901C21.9144 6.96435 22.0616 6.99701 22.2104 6.99699C22.2843 6.99699 22.3097 6.99699 22.3258 6.99386C22.4906 6.98085 22.6512 6.9308 22.7971 6.8469C22.9431 6.76301 23.0713 6.6471 23.1736 6.50657C23.5406 6.00366 23.9977 5.37706 24 4.1882C24.0035 1.97103 22.4799 0.134317 20.5287 0.00687208Z" fill="white"/>
<path d="M12.0042 1.99902C6.40626 1.99902 1.84714 6.93127 1.84714 12.9943C1.84516 15.5649 2.67891 18.0543 4.2023 20.0263L2.1178 22.2834C2.03002 22.3757 1.96007 22.486 1.91202 22.6079C1.86397 22.7298 1.83878 22.8607 1.83791 22.9932C1.83705 23.1257 1.86052 23.2571 1.90697 23.3797C1.95342 23.5022 2.02192 23.6136 2.10848 23.7073C2.19505 23.8009 2.29795 23.875 2.41121 23.9253C2.52447 23.9755 2.64582 24.0009 2.76821 23.9999C2.8906 23.9989 3.01158 23.9715 3.12413 23.9195C3.23668 23.8674 3.33854 23.7916 3.42379 23.6966L5.50828 21.44C7.33088 23.0873 9.62984 23.9896 12.0042 23.9896C14.3785 23.9896 16.6774 23.0873 18.5 21.44L20.5851 23.6966C20.6704 23.7916 20.7722 23.8674 20.8848 23.9195C20.9973 23.9715 21.1183 23.9989 21.2407 23.9999C21.3631 24.0009 21.4844 23.9755 21.5977 23.9253C21.7109 23.875 21.8138 23.8009 21.9004 23.7073C21.987 23.6136 22.0555 23.5022 22.1019 23.3797C22.1484 23.2571 22.1718 23.1257 22.171 22.9932C22.1701 22.8607 22.1449 22.7298 22.0969 22.6079C22.0488 22.486 21.9789 22.3757 21.8911 22.2834L19.806 20.0263C21.3297 18.0545 22.1635 15.565 22.1612 12.9943C22.1612 6.9344 17.6049 1.99902 12.0042 1.99902ZM12.9275 12.9943C12.9275 13.2594 12.8302 13.5136 12.6571 13.7011C12.4839 13.8885 12.249 13.9939 12.0042 13.9939H7.38733C7.14244 13.9939 6.90758 13.8885 6.73441 13.7011C6.56125 13.5136 6.46397 13.2594 6.46397 12.9943C6.46397 12.7292 6.56125 12.4749 6.73441 12.2875C6.90758 12.1 7.14244 11.9947 7.38733 11.9947H11.0808V5.9973C11.0808 5.7322 11.1781 5.47795 11.3512 5.2905C11.5244 5.10304 11.7593 4.99773 12.0042 4.99773C12.249 4.99773 12.4839 5.10304 12.6571 5.2905C12.8302 5.47795 12.9275 5.7322 12.9275 5.9973V12.9943Z" fill="white"/>
</svg>
