<svg width="30" height="30" viewBox="0 0 30 30" fill="none" xmlns="http://www.w3.org/2000/svg">
<path d="M15 0C6.729 0 0 6.729 0 15C0 23.271 6.729 30 15 30C23.271 30 30 23.271 30 15C30 6.729 23.271 0 15 0ZM8.0895 12.0825C7.69833 13.0053 7.49781 13.9977 7.5 15H4.5C4.4983 13.6207 4.76922 12.2547 5.29719 10.9804C5.82516 9.70621 6.59977 8.54888 7.5765 7.575C8.53296 6.61614 9.66641 5.85202 10.914 5.325L12.0825 8.088C11.1885 8.466 10.3875 9.006 9.6975 9.696C9.0075 10.386 8.4675 11.1885 8.0895 12.0825ZM14.9895 18C14.1911 18 13.4253 17.6828 12.8608 17.1182C12.2962 16.5537 11.979 15.7879 11.979 14.9895C11.979 14.1911 12.2962 13.4253 12.8608 12.8608C13.4253 12.2962 14.1911 11.979 14.9895 11.979C15.7879 11.979 16.5537 12.2962 17.1182 12.8608C17.6828 13.4253 18 14.1911 18 14.9895C18 15.7879 17.6828 16.5537 17.1182 17.1182C16.5537 17.6828 15.7879 18 14.9895 18Z" fill="white"/>
</svg>
