<svg width="20" height="24" viewBox="0 0 20 24" fill="none" xmlns="http://www.w3.org/2000/svg">
<path d="M16.3636 1.6H15.7153C15.624 1.59992 15.5349 1.57565 15.4595 1.53034C15.3841 1.48504 15.3259 1.4208 15.2926 1.346C15.118 0.949929 14.8114 0.609513 14.4132 0.369339C14.015 0.129165 13.5436 0.000431461 13.0608 0H6.93921C6.45642 0.000431461 5.98504 0.129165 5.58681 0.369339C5.18857 0.609513 4.88205 0.949929 4.70739 1.346C4.67406 1.4208 4.61591 1.48504 4.54051 1.53034C4.46511 1.57565 4.37596 1.59992 4.28466 1.6H3.63636C2.67194 1.6 1.74702 1.93714 1.06507 2.53726C0.383116 3.13737 0 3.95131 0 4.8V20.8C0 21.6487 0.383116 22.4626 1.06507 23.0627C1.74702 23.6629 2.67194 24 3.63636 24H16.3636C17.3281 24 18.253 23.6629 18.9349 23.0627C19.6169 22.4626 20 21.6487 20 20.8V4.8C20 3.95131 19.6169 3.13737 18.9349 2.53726C18.253 1.93714 17.3281 1.6 16.3636 1.6ZM13.629 4.8H6.37102C6.12992 4.8 5.89869 4.71571 5.7282 4.56569C5.55771 4.41566 5.46193 4.21217 5.46193 4C5.46193 3.78783 5.55771 3.58434 5.7282 3.43431C5.89869 3.28429 6.12992 3.2 6.37102 3.2H13.629C13.8701 3.2 14.1013 3.28429 14.2718 3.43431C14.4423 3.58434 14.5381 3.78783 14.5381 4C14.5381 4.21217 14.4423 4.41566 14.2718 4.56569C14.1013 4.71571 13.8701 4.8 13.629 4.8Z" fill="black"/>
</svg>
