<svg width="24" height="24" viewBox="0 0 24 24" fill="none" xmlns="http://www.w3.org/2000/svg">
<path d="M7.73679 13.0909H16.3499V10.9091H7.73679V0.818182C7.73679 0.601187 7.80443 0.393079 7.92482 0.23964C8.04521 0.086201 8.2085 0 8.37876 0H23.358C23.5283 0 23.6916 0.086201 23.812 0.23964C23.9324 0.393079 24 0.601187 24 0.818182V23.1818C24 23.3988 23.9324 23.6069 23.812 23.7604C23.6916 23.9138 23.5283 24 23.358 24H8.37876C8.2085 24 8.04521 23.9138 7.92482 23.7604C7.80443 23.6069 7.73679 23.3988 7.73679 23.1818V13.0909ZM3.27672 13.0909L6.70055 17.4545L5.4899 18.9975L0 12L5.4899 5.0025L6.70055 6.54545L3.27672 10.9091H7.73679V13.0909H3.27672Z" fill="black"/>
</svg>
